<svg xmlns="http://www.w3.org/2000/svg" viewBox="0 0 24 24" fill="none" stroke="currentColor" stroke-width="2" stroke-linecap="round" stroke-linejoin="round">
  <path d="M12 2C6.5 2 2 6.5 2 12s4.5 10 10 10c.9 0 1.8-.1 2.6-.3" />
  <path d="M12 2c3 0 5.5 2.5 5.5 6.5" />
  <path d="M12 2c3 0 5.5 2.5 5.5 6.5" />
  <path d="M12 22c-3 0-5.5-2.5-5.5-6.5" />
  <path d="M12 22c-3 0-5.5-2.5-5.5-6.5" />
  <path d="M2 12c0-3 2.5-5.5 6.5-5.5" />
  <path d="M2 12c0-3 2.5-5.5 6.5-5.5" />
  <path d="M22 12c0 3-2.5 5.5-6.5 5.5" />
  <path d="M22 12c0 3-2.5 5.5-6.5 5.5" />
  <path d="M12 8c-2.2 0-4 1.8-4 4s1.8 4 4 4 4-1.8 4-4-1.8-4-4-4Z" />
</svg>