<svg xmlns="http://www.w3.org/2000/svg" viewBox="0 0 120 120" fill="none">
  <defs>
    <linearGradient id="bg" x1="10" y1="10" x2="110" y2="110" gradientUnits="userSpaceOnUse">
      <stop offset="0%" stop-color="#2563eb"/>
      <stop offset="100%" stop-color="#0891b2"/>
    </linearGradient>
  </defs>

  <rect width="120" height="120" rx="26" fill="url(#bg)"/>

  <!-- ???? -->
  <circle cx="60" cy="55" r="33" stroke="#ffffff" stroke-width="3.5" fill="none" opacity="0.88"/>

  <!-- ????? (12/3/6/9 ?) -->
  <line x1="60" y1="26" x2="60" y2="31" stroke="#ffffff" stroke-width="2.5" stroke-linecap="round" opacity="0.55"/>
  <line x1="89" y1="55" x2="84" y2="55" stroke="#ffffff" stroke-width="2.5" stroke-linecap="round" opacity="0.55"/>
  <line x1="60" y1="84" x2="60" y2="79" stroke="#ffffff" stroke-width="2.5" stroke-linecap="round" opacity="0.55"/>
  <line x1="31" y1="55" x2="36" y2="55" stroke="#ffffff" stroke-width="2.5" stroke-linecap="round" opacity="0.55"/>

  <!-- ????? -->
  <line x1="74.5" y1="30.5" x2="72.5" y2="33.5" stroke="#ffffff" stroke-width="1.5" stroke-linecap="round" opacity="0.3"/>
  <line x1="84.5" y1="41" x2="81.5" y2="43" stroke="#ffffff" stroke-width="1.5" stroke-linecap="round" opacity="0.3"/>
  <line x1="84.5" y1="69" x2="81.5" y2="67" stroke="#ffffff" stroke-width="1.5" stroke-linecap="round" opacity="0.3"/>
  <line x1="74.5" y1="79.5" x2="72.5" y2="76.5" stroke="#ffffff" stroke-width="1.5" stroke-linecap="round" opacity="0.3"/>
  <line x1="45.5" y1="79.5" x2="47.5" y2="76.5" stroke="#ffffff" stroke-width="1.5" stroke-linecap="round" opacity="0.3"/>
  <line x1="35.5" y1="69" x2="38.5" y2="67" stroke="#ffffff" stroke-width="1.5" stroke-linecap="round" opacity="0.3"/>
  <line x1="35.5" y1="41" x2="38.5" y2="43" stroke="#ffffff" stroke-width="1.5" stroke-linecap="round" opacity="0.3"/>
  <line x1="45.5" y1="30.5" x2="47.5" y2="33.5" stroke="#ffffff" stroke-width="1.5" stroke-linecap="round" opacity="0.3"/>

  <!-- ?? -->
  <line x1="60" y1="55" x2="50" y2="39" stroke="#ffffff" stroke-width="3.5" stroke-linecap="round"/>
  <!-- ?? -->
  <line x1="60" y1="55" x2="76" y2="44" stroke="#a5f3fc" stroke-width="2.5" stroke-linecap="round"/>
  <!-- ??? -->
  <circle cx="60" cy="55" r="3" fill="#ffffff"/>
  <circle cx="60" cy="55" r="1.5" fill="url(#bg)"/>

  <!-- ???????????????? -->
  <path d="M76 97 L88 97" stroke="#a5f3fc" stroke-width="2.8" stroke-linecap="round"/>
  <polyline points="85,94 88,97 85,100" stroke="#a5f3fc" stroke-width="2.8" stroke-linecap="round" stroke-linejoin="round" fill="none"/>
  <path d="M100 104 L88 104" stroke="#a5f3fc" stroke-width="2.8" stroke-linecap="round"/>
  <polyline points="91,101 88,104 91,107" stroke="#a5f3fc" stroke-width="2.8" stroke-linecap="round" stroke-linejoin="round" fill="none"/>
</svg>
