<svg width="256" height="256" viewBox="0 0 256 256" fill="none" xmlns="http://www.w3.org/2000/svg">
<path d="M0 24C0 10.7452 10.7452 0 24 0H232C245.255 0 256 10.7452 256 24V232C256 245.255 245.255 256 232 256H24C10.7452 256 0 245.255 0 232V24Z" fill="white"/>
<path d="M216.563 94.8634H210.929C210.655 94.8634 210.38 94.7259 210.242 94.3134C210.105 94.0384 209.968 93.6259 209.83 93.3509C209.693 93.0759 209.83 92.8009 209.968 92.6634L214.09 88.4009C218.212 84.276 220.548 78.6385 220.548 72.8635C220.548 66.9511 218.212 61.4511 214.09 57.3261L198.562 41.7887C190.042 33.2638 176.026 33.2638 167.507 41.6512L163.109 45.9137C162.834 46.1887 162.56 46.1887 162.285 46.0512C162.01 45.9137 161.598 45.7762 161.323 45.6387C161.048 45.5012 160.773 45.2262 160.773 44.9512V39.3137C160.773 27.6263 151.154 18.0014 139.474 18.0014H117.488C105.121 17.8639 94.9519 28.0388 94.9519 40.5512V45.2262C94.9519 45.5012 94.8145 45.7762 94.5397 45.9137H94.4022C94.1274 46.0512 93.8526 45.9137 93.5778 45.7762L89.5928 41.6512C85.4703 37.5263 79.9738 35.1888 74.065 35.1888C68.1562 35.1888 62.6596 37.5263 58.5372 41.6512L43.0094 57.1886C34.4897 65.7136 34.4897 79.7385 43.0094 88.2634L47.2692 92.6634C47.544 92.9384 47.544 93.2134 47.4066 93.4884C47.2692 93.7634 47.1318 94.1759 46.9944 94.4509C46.857 94.7259 46.5821 94.8634 46.3073 94.8634H40.6733C28.1686 94.8634 18 105.038 18 117.551V138.176C18 150.688 28.1686 160.863 40.6733 160.863H46.7195C46.9944 160.863 47.2692 161 47.4066 161.275V161.413C47.544 161.688 47.4066 161.963 47.2692 162.238L43.1468 166.225C34.6271 174.75 34.6271 188.638 43.1468 197.3L58.6746 212.838C62.797 216.963 68.2936 219.3 74.2024 219.3C80.1112 219.3 85.6078 216.963 89.8676 212.7L93.7152 208.713C93.8526 208.438 94.2648 208.438 94.5397 208.575H94.6771C94.9519 208.713 95.0893 208.988 95.0893 209.263V215.313C95.0893 227.825 105.258 238 117.763 238H139.749C151.429 238 161.048 228.375 161.048 216.688V209.675C161.048 209.4 161.186 209.125 161.598 208.988C161.873 208.85 162.285 208.713 162.56 208.575C162.834 208.438 163.109 208.575 163.247 208.713L167.507 212.838C171.629 216.963 177.263 219.3 183.034 219.3C188.806 219.3 194.44 216.963 198.562 212.838L214.09 197.3C218.212 193.175 220.548 187.675 220.548 181.763C220.548 175.85 218.212 170.35 214.09 166.088L210.105 162.238C209.83 161.963 209.83 161.688 209.968 161.275C210.105 161 210.38 160.863 210.655 160.863H216.701C228.381 160.863 238 151.238 238 139.551V116.176C237.863 104.488 228.244 94.8634 216.563 94.8634ZM127.244 157.426C111.304 157.426 98.3873 144.501 98.3873 128.551C98.3873 112.601 111.304 99.6759 127.244 99.6759C143.184 99.6759 156.101 112.601 156.101 128.551C156.101 144.501 143.184 157.426 127.244 157.426Z" fill="#568289"/>
<path d="M127.931 87.9885C105.945 87.9885 88.0812 105.863 88.0812 127.863C88.0812 149.863 105.945 167.738 127.931 167.738C149.918 167.738 167.781 149.863 167.781 127.863C167.781 105.863 149.918 87.9885 127.931 87.9885ZM127.931 156.738C111.991 156.738 99.0743 143.813 99.0743 127.863C99.0743 111.913 111.991 98.9885 127.931 98.9885C143.871 98.9885 156.788 111.913 156.788 127.863C156.788 143.813 143.871 156.738 127.931 156.738Z" fill="#245156"/>
</svg>
